<?xml version="1.0" encoding="UTF-8"?>
<svg id="Layer_2" data-name="Layer 2" xmlns="http://www.w3.org/2000/svg" viewBox="0 0 430.13 68.57">
  <defs>
    <style>
      .cls-1 {
        stroke-width: 0px;
      }
    </style>
  </defs>
  <g id="Layer_1-2" data-name="Layer 1">
    <g>
      <g>
        <g>
          <path class="cls-1" d="m349.63,29.43c.22,1.97.99,3.51,2.3,4.6,1.32,1.1,2.91,1.64,4.77,1.64,1.64,0,3.02-.34,4.14-1.01,1.11-.68,2.09-1.53,2.93-2.55l4.71,3.56c-1.54,1.9-3.25,3.25-5.15,4.06-1.9.8-3.89,1.21-5.98,1.21-1.97,0-3.84-.33-5.59-.99-1.75-.66-3.27-1.59-4.55-2.8-1.28-1.21-2.29-2.66-3.04-4.36-.75-1.7-1.12-3.59-1.12-5.67s.37-3.97,1.12-5.67c.75-1.7,1.76-3.15,3.04-4.36,1.28-1.21,2.8-2.14,4.55-2.8,1.75-.66,3.62-.99,5.59-.99,1.83,0,3.5.32,5.02.96,1.52.64,2.81,1.56,3.89,2.77,1.08,1.21,1.92,2.7,2.52,4.47.6,1.77.9,3.81.9,6.11v1.81h-20.06Zm13.49-4.93c-.04-1.97-.64-3.51-1.81-4.6-1.17-1.1-2.8-1.64-4.88-1.64-1.97,0-3.54.57-4.69,1.7-1.15,1.13-1.86,2.65-2.11,4.55h13.49Z"/>
          <path class="cls-1" d="m401.59,13.97h6.25v3.95h.11c.95-1.64,2.23-2.82,3.84-3.54,1.61-.71,3.34-1.07,5.21-1.07,2.01,0,3.82.36,5.43,1.07,1.61.71,2.98,1.69,4.11,2.93,1.13,1.24,1.99,2.71,2.58,4.39.58,1.68.88,3.49.88,5.43s-.31,3.75-.93,5.43c-.62,1.68-1.49,3.14-2.6,4.39-1.12,1.24-2.46,2.22-4.03,2.93-1.57.71-3.29,1.07-5.15,1.07-1.21,0-2.29-.13-3.26-.38-.97-.26-1.82-.58-2.55-.99-.73-.4-1.35-.83-1.86-1.29-.51-.46-.93-.9-1.26-1.34h-.16v15.84h-6.58V13.97Zm21.82,13.16c0-1.02-.17-2.01-.52-2.96-.35-.95-.86-1.79-1.54-2.52-.68-.73-1.49-1.32-2.44-1.75-.95-.44-2.03-.66-3.23-.66s-2.28.22-3.23.66c-.95.44-1.76,1.02-2.44,1.75-.68.73-1.19,1.57-1.54,2.52-.35.95-.52,1.94-.52,2.96s.17,2.01.52,2.96c.35.95.86,1.79,1.54,2.52.68.73,1.49,1.32,2.44,1.75.95.44,2.03.66,3.23.66s2.28-.22,3.23-.66c.95-.44,1.76-1.02,2.44-1.75.68-.73,1.19-1.57,1.54-2.52.35-.95.52-1.94.52-2.96Z"/>
          <polygon class="cls-1" points="388.26 27.12 398.3 40.28 390.29 40.28 384.25 32.36 378.22 40.28 370.22 40.28 395.1 7.65 403.11 7.65 388.26 27.12"/>
          <polygon class="cls-1" points="378.23 13.97 370.22 13.97 378.32 24.6 382.32 19.34 378.23 13.97"/>
          <g>
            <path class="cls-1" d="m349.13,45.21c0-.1.08-.19.19-.19h2.88c1.21,0,2.2.97,2.2,2.17,0,.93-.62,1.68-1.49,2.04l1.38,2.56c.07.13,0,.29-.17.29h-1.06c-.09,0-.14-.05-.16-.09l-1.34-2.67h-1.12v2.57c0,.1-.09.19-.19.19h-.93c-.11,0-.19-.09-.19-.19v-6.68Zm2.96,3.03c.53,0,1-.46,1-1.03,0-.53-.46-.98-1-.98h-1.64v2.01h1.64Z"/>
            <path class="cls-1" d="m358.67,45.21c0-.1.08-.19.19-.19h4.1c.11,0,.19.09.19.19v.83c0,.1-.08.19-.19.19h-2.99v1.65h2.49c.1,0,.19.09.19.19v.84c0,.11-.09.19-.19.19h-2.49v1.76h2.99c.11,0,.19.09.19.19v.83c0,.1-.08.19-.19.19h-4.1c-.11,0-.19-.09-.19-.19v-6.68Z"/>
            <path class="cls-1" d="m365.9,51.81l3.14-6.79c.03-.06.08-.11.17-.11h.1c.1,0,.14.05.17.11l3.11,6.79c.06.13-.02.26-.17.26h-.88c-.15,0-.22-.06-.29-.2l-.49-1.09h-3.02l-.49,1.09c-.04.1-.13.2-.29.2h-.88c-.15,0-.23-.13-.17-.26Zm4.36-2.15l-1.01-2.22h-.03l-.99,2.22h2.03Z"/>
            <path class="cls-1" d="m375.52,45.21c0-.1.08-.19.19-.19h.93c.1,0,.19.09.19.19v5.66h2.57c.11,0,.19.09.19.19v.83c0,.1-.08.19-.19.19h-3.69c-.11,0-.19-.09-.19-.19v-6.68Z"/>
            <path class="cls-1" d="m383.98,46.23h-1.54c-.11,0-.19-.09-.19-.19v-.83c0-.1.08-.19.19-.19h4.41c.11,0,.19.09.19.19v.83c0,.1-.08.19-.19.19h-1.54v5.66c0,.1-.09.19-.19.19h-.94c-.1,0-.19-.09-.19-.19v-5.66Z"/>
            <path class="cls-1" d="m392.59,48.68l-2.3-3.37c-.08-.13,0-.29.16-.29h1.03c.08,0,.13.05.16.09l1.61,2.32,1.61-2.32s.08-.09.16-.09h1.04c.16,0,.24.16.16.29l-2.33,3.36v3.22c0,.1-.09.19-.19.19h-.93c-.11,0-.19-.09-.19-.19v-3.21Z"/>
          </g>
        </g>
        <g>
          <path class="cls-1" d="m428.12,15.15v-1.05h-.37v-.21h1v.21h-.37v1.05h-.25Z"/>
          <path class="cls-1" d="m428.91,15.15v-1.26h.38l.23.86.23-.86h.38v1.26h-.24v-.99l-.25.99h-.25l-.25-.99v.99h-.24Z"/>
        </g>
      </g>
      <g>
        <path class="cls-1" d="m4.88,37.8h12.76v3.9H0V13.59h4.88v24.21Z"/>
        <path class="cls-1" d="m37.82,29.15h-11.55v8.65h13.49v3.9h-18.38V13.59h18.25v3.94h-13.36v7.76h11.55v3.86Z"/>
        <path class="cls-1" d="m48.63,31.28v10.43h-4.88V13.59h10.75c3.14,0,5.63.82,7.48,2.45,1.85,1.64,2.77,3.8,2.77,6.49s-.9,4.9-2.71,6.44c-1.81,1.53-4.34,2.3-7.6,2.3h-5.81Zm0-3.94h5.87c1.74,0,3.06-.41,3.98-1.23.91-.82,1.37-2,1.37-3.54s-.46-2.73-1.39-3.64c-.93-.91-2.2-1.37-3.82-1.4h-6v9.81Z"/>
        <path class="cls-1" d="m81.32,35.16h-10.89l-2.28,6.54h-5.08l10.62-28.11h4.38l10.64,28.11h-5.1l-2.3-6.54Zm-9.52-3.94h8.15l-4.07-11.66-4.07,11.66Z"/>
        <path class="cls-1" d="m113.45,38.05c-1.02,1.33-2.43,2.33-4.23,3.01-1.8.68-3.85,1.02-6.14,1.02s-4.44-.53-6.26-1.6c-1.82-1.07-3.21-2.6-4.2-4.59-.98-1.99-1.5-4.31-1.53-6.96v-2.2c0-4.25,1.02-7.56,3.05-9.95s4.87-3.58,8.51-3.58c3.13,0,5.61.77,7.45,2.33,1.84,1.55,2.95,3.78,3.32,6.69h-4.79c-.54-3.39-2.5-5.08-5.89-5.08-2.19,0-3.85.79-4.99,2.36-1.14,1.58-1.73,3.89-1.77,6.94v2.16c0,3.03.64,5.39,1.92,7.07s3.06,2.52,5.34,2.52c2.5,0,4.27-.57,5.33-1.7v-5.5h-5.79v-3.71h10.66v10.77Z"/>
        <path class="cls-1" d="m135.24,29.15h-11.55v8.65h13.49v3.9h-18.38V13.59h18.25v3.94h-13.36v7.76h11.55v3.86Z"/>
        <path class="cls-1" d="m156.26,13.59h2.39v19.75c0,2.66-.77,4.79-2.31,6.37-1.54,1.58-3.6,2.37-6.19,2.37-2.73,0-4.83-.71-6.29-2.14-1.47-1.43-2.2-3.42-2.2-5.99h2.37c0,2.03.53,3.56,1.6,4.59,1.07,1.02,2.57,1.53,4.52,1.53,1.79,0,3.25-.59,4.37-1.78,1.13-1.18,1.7-2.79,1.73-4.83V13.59Z"/>
        <path class="cls-1" d="m186.77,29.17c0,2.59-.45,4.86-1.34,6.82-.89,1.96-2.17,3.46-3.83,4.52s-3.58,1.58-5.75,1.58c-3.28,0-5.93-1.17-7.95-3.52-2.02-2.35-3.03-5.52-3.03-9.51v-2.9c0-2.56.45-4.83,1.36-6.81.91-1.98,2.19-3.49,3.85-4.56,1.66-1.06,3.57-1.59,5.73-1.59s4.07.52,5.72,1.56c1.65,1.04,2.93,2.52,3.83,4.42.9,1.91,1.37,4.11,1.41,6.62v3.36Zm-2.37-3.05c0-3.38-.77-6.04-2.3-7.95s-3.63-2.88-6.29-2.88-4.69.96-6.25,2.89c-1.55,1.92-2.33,4.61-2.33,8.06v2.93c0,3.33.77,5.98,2.32,7.93,1.54,1.95,3.64,2.93,6.29,2.93s4.79-.96,6.29-2.89c1.51-1.92,2.26-4.6,2.26-8.04v-2.97Z"/>
        <path class="cls-1" d="m213.98,41.7h-2.39v-13.48h-16.06v13.48h-2.37V13.59h2.37v12.63h16.06v-12.63h2.39v28.11Z"/>
        <path class="cls-1" d="m241.86,41.7h-2.38l-16.16-24.06v24.06h-2.39V13.59h2.39l16.18,24.08V13.59h2.36v28.11Z"/>
        <path class="cls-1" d="m264.71,34.79c0-1.56-.55-2.79-1.64-3.7s-3.1-1.77-6-2.59c-2.91-.82-5.03-1.71-6.37-2.67-1.91-1.36-2.86-3.15-2.86-5.37s.88-3.9,2.65-5.24c1.77-1.34,4.03-2.02,6.79-2.02,1.87,0,3.54.36,5.01,1.08,1.47.72,2.62,1.72,3.43,3.01.81,1.29,1.22,2.72,1.22,4.3h-2.39c0-1.92-.66-3.47-1.97-4.64-1.31-1.17-3.08-1.75-5.29-1.75s-3.86.48-5.14,1.44c-1.27.96-1.91,2.21-1.91,3.76,0,1.43.57,2.6,1.72,3.5,1.15.9,2.98,1.7,5.5,2.39,2.52.69,4.43,1.41,5.73,2.14,1.3.74,2.28,1.63,2.93,2.66s.98,2.25.98,3.65c0,2.21-.88,3.99-2.65,5.33s-4.1,2.01-7,2.01c-1.98,0-3.8-.35-5.45-1.06-1.65-.71-2.91-1.7-3.76-2.97-.86-1.27-1.28-2.73-1.28-4.38h2.37c0,1.98.74,3.55,2.22,4.69s3.45,1.72,5.91,1.72c2.19,0,3.94-.48,5.27-1.45,1.33-.97,1.99-2.25,1.99-3.84Z"/>
        <path class="cls-1" d="m292.8,29.17c0,2.59-.45,4.86-1.34,6.82-.89,1.96-2.17,3.46-3.83,4.52s-3.58,1.58-5.75,1.58c-3.28,0-5.93-1.17-7.95-3.52-2.02-2.35-3.03-5.52-3.03-9.51v-2.9c0-2.56.45-4.83,1.36-6.81.91-1.98,2.19-3.49,3.85-4.56,1.66-1.06,3.57-1.59,5.73-1.59s4.07.52,5.72,1.56c1.65,1.04,2.93,2.52,3.83,4.42.9,1.91,1.37,4.11,1.41,6.62v3.36Zm-2.37-3.05c0-3.38-.77-6.04-2.3-7.95s-3.63-2.88-6.29-2.88-4.69.96-6.25,2.89c-1.55,1.92-2.33,4.61-2.33,8.06v2.93c0,3.33.77,5.98,2.32,7.93,1.54,1.95,3.64,2.93,6.29,2.93s4.79-.96,6.29-2.89c1.51-1.92,2.26-4.6,2.26-8.04v-2.97Z"/>
        <path class="cls-1" d="m319.52,41.7h-2.38l-16.16-24.06v24.06h-2.39V13.59h2.39l16.18,24.08V13.59h2.36v28.11Z"/>
      </g>
      <g>
        <path class="cls-1" d="m187.92,53.82h-2.09v4.15h-1.88v-10.79h3.8c1.25,0,2.21.28,2.88.84.68.56,1.01,1.37,1.01,2.43,0,.72-.17,1.33-.52,1.81-.35.49-.83.86-1.46,1.12l2.42,4.5v.1h-2.01l-2.16-4.15Zm-2.09-1.51h1.93c.63,0,1.13-.16,1.48-.48.36-.32.53-.75.53-1.31s-.16-1.02-.49-1.34c-.33-.32-.82-.48-1.47-.49h-1.98v3.62Z"/>
        <path class="cls-1" d="m199.74,53.16h-4.43v3.32h5.18v1.5h-7.06v-10.79h7.01v1.51h-5.13v2.98h4.43v1.48Z"/>
        <path class="cls-1" d="m208.06,55.46h-4.18l-.87,2.51h-1.95l4.08-10.79h1.68l4.09,10.79h-1.96l-.88-2.51Zm-3.65-1.51h3.13l-1.56-4.48-1.56,4.48Z"/>
        <path class="cls-1" d="m213.99,56.48h4.9v1.5h-6.78v-10.79h1.88v9.3Z"/>
        <path class="cls-1" d="m226.61,48.69h-3.37v9.28h-1.86v-9.28h-3.34v-1.51h8.56v1.51Z"/>
        <path class="cls-1" d="m231.67,52.3l2.48-5.11h2.08l-3.62,6.82v3.97h-1.88v-3.97l-3.62-6.82h2.08l2.48,5.11Z"/>
        <path class="cls-1" d="m249.45,56.57c-.39.51-.93.89-1.62,1.16-.69.26-1.48.39-2.36.39s-1.71-.2-2.4-.62c-.7-.41-1.23-1-1.61-1.76-.38-.76-.58-1.65-.59-2.67v-.84c0-1.63.39-2.91,1.17-3.82.78-.92,1.87-1.38,3.27-1.38,1.2,0,2.15.3,2.86.89.71.6,1.13,1.45,1.27,2.57h-1.84c-.21-1.3-.96-1.95-2.26-1.95-.84,0-1.48.3-1.92.91-.44.6-.66,1.49-.68,2.66v.83c0,1.17.25,2.07.74,2.71.49.64,1.17.97,2.05.97.96,0,1.64-.22,2.05-.65v-2.11h-2.22v-1.42h4.09v4.14Z"/>
        <path class="cls-1" d="m255.48,53.82h-2.09v4.15h-1.88v-10.79h3.8c1.25,0,2.21.28,2.88.84.68.56,1.01,1.37,1.01,2.43,0,.72-.17,1.33-.52,1.81-.35.49-.83.86-1.46,1.12l2.42,4.5v.1h-2.01l-2.16-4.15Zm-2.09-1.51h1.93c.63,0,1.13-.16,1.48-.48.36-.32.53-.75.53-1.31s-.16-1.02-.49-1.34c-.33-.32-.82-.48-1.47-.49h-1.98v3.62Z"/>
        <path class="cls-1" d="m269.6,52.86c0,1.06-.18,1.99-.55,2.78-.37.8-.89,1.41-1.57,1.84-.68.43-1.46.64-2.35.64s-1.65-.21-2.34-.64c-.68-.43-1.21-1.04-1.59-1.83s-.56-1.7-.57-2.74v-.61c0-1.05.19-1.98.56-2.79.37-.81.9-1.42,1.58-1.85.68-.43,1.46-.64,2.34-.64s1.66.21,2.34.63c.68.42,1.2,1.03,1.58,1.82.37.79.56,1.72.56,2.77v.6Zm-1.88-.56c0-1.2-.23-2.11-.68-2.75-.45-.64-1.09-.96-1.92-.96s-1.44.32-1.9.95c-.46.64-.69,1.53-.7,2.69v.62c0,1.19.23,2.1.69,2.75.46.65,1.1.97,1.92.97s1.47-.32,1.92-.95c.45-.63.67-1.56.67-2.77v-.56Z"/>
        <path class="cls-1" d="m279.37,47.18v7.21c0,1.15-.37,2.05-1.1,2.72-.73.67-1.71,1-2.93,1s-2.22-.33-2.94-.99c-.73-.66-1.09-1.58-1.09-2.75v-7.21h1.87v7.22c0,.72.18,1.27.55,1.65s.91.57,1.62.57c1.44,0,2.16-.76,2.16-2.28v-7.16h1.87Z"/>
        <path class="cls-1" d="m283.24,53.97v4h-1.88v-10.79h4.13c1.21,0,2.16.31,2.87.94s1.06,1.46,1.06,2.49-.35,1.88-1.04,2.47c-.69.59-1.67.88-2.92.88h-2.23Zm0-1.51h2.25c.67,0,1.18-.16,1.53-.47.35-.31.53-.77.53-1.36s-.18-1.05-.53-1.4c-.36-.35-.84-.53-1.47-.54h-2.31v3.77Z"/>
        <path class="cls-1" d="m296.73,56.48h4.9v1.5h-6.78v-10.79h1.88v9.3Z"/>
        <path class="cls-1" d="m304.94,56.48h4.9v1.5h-6.78v-10.79h1.88v9.3Z"/>
        <path class="cls-1" d="m319.52,54.46c-.11,1.15-.53,2.05-1.27,2.69-.74.65-1.73.97-2.96.97-.86,0-1.62-.2-2.27-.61-.66-.41-1.16-.99-1.52-1.74s-.54-1.62-.56-2.62v-1.01c0-1.02.18-1.92.54-2.69s.88-1.37,1.55-1.79c.67-.42,1.45-.63,2.34-.63,1.19,0,2.15.32,2.88.97s1.15,1.56,1.27,2.74h-1.87c-.09-.78-.32-1.34-.68-1.68s-.9-.52-1.6-.52c-.82,0-1.44.3-1.88.89-.44.6-.66,1.47-.67,2.62v.96c0,1.17.21,2.06.63,2.67.42.61,1.03.92,1.83.92.74,0,1.29-.17,1.66-.5s.6-.88.7-1.65h1.87Z"/>
      </g>
      <rect class="cls-1" x="331.06" width="1.78" height="68.57"/>
    </g>
  </g>
</svg>